<?xml version="1.0" encoding="utf-8" standalone="no"?>
<!DOCTYPE svg PUBLIC "-//W3C//DTD SVG 1.1//EN"
  "http://www.w3.org/Graphics/SVG/1.1/DTD/svg11.dtd">
<svg xmlns:xlink="http://www.w3.org/1999/xlink" width="334.8pt" height="69.23403pt" viewBox="0 0 334.8 69.23403" xmlns="http://www.w3.org/2000/svg" version="1.1">
 <metadata>
  <rdf:RDF xmlns:dc="http://purl.org/dc/elements/1.1/" xmlns:cc="http://creativecommons.org/ns#" xmlns:rdf="http://www.w3.org/1999/02/22-rdf-syntax-ns#">
   <cc:Work>
    <dc:type rdf:resource="http://purl.org/dc/dcmitype/StillImage"/>
    <dc:date>2026-03-23T20:55:49.269927</dc:date>
    <dc:format>image/svg+xml</dc:format>
    <dc:creator>
     <cc:Agent>
      <dc:title>Matplotlib v3.10.8, https://matplotlib.org/</dc:title>
     </cc:Agent>
    </dc:creator>
   </cc:Work>
  </rdf:RDF>
 </metadata>
 <defs>
  <style type="text/css">*{stroke-linejoin: round; stroke-linecap: butt}</style>
 </defs>
 <g id="figure_1">
  <g id="patch_1">
   <path d="M 0 69.23403 
L 334.8 69.23403 
L 334.8 0 
L 0 0 
z
" style="fill: #ffffff"/>
  </g>
  <g id="axes_1">
   <g id="line2d_1">
    <path d="M 0.377835 50.030999 
L -0 46.815726 
L 0.275853 43.543945 
L 1.284304 40.216993 
L 3.030034 36.849583 
L 5.51438 33.461443 
L 8.734 30.077314 
L 12.680868 26.718598 
L 17.333251 23.365566 
L 22.684794 20.09111 
L 28.719116 16.940369 
L 35.411471 13.952466 
L 42.734108 11.16652 
L 50.65359 8.619647 
L 59.1318 6.347957 
L 68.126606 4.382883 
L 77.591533 2.753512 
L 87.477093 1.483921 
L 97.730123 0.593501 
L 108.29612 0.095963 
L 119.118242 0 
L 130.115572 0.305611 
L 141.05907 0.980364 
L 151.97214 1.936319 
L 162.921321 3.143718 
L 173.870169 4.585175 
L 184.770867 6.241629 
L 195.576271 8.093353 
L 206.240237 10.11828 
L 216.718296 12.294006 
L 226.966644 14.596791 
L 236.943821 17.002227 
L 246.610036 19.485237 
L 255.926838 22.020407 
L 264.85845 24.581658 
L 273.370764 27.14291 
L 281.429678 29.693127 
L 288.984366 32.363047 
L 295.972636 35.366666 
L 302.418897 38.281343 
L 308.328834 40.890743 
L 313.693752 43.113615 
L 318.49894 44.931234 
L 322.725339 46.360318 
L 326.351549 47.441327 
L 329.355837 48.224749 
L 331.717471 48.764083 
L 333.418396 49.109484 
L 334.444902 49.300407 
L 334.8 49.497684 
L 334.620779 50.552612 
L 334.220542 50.621826 
L 333.189689 50.465007 
L 331.471377 50.235632 
L 329.065272 49.98285 
L 325.973714 49.767183 
L 322.200383 49.656174 
L 317.753971 49.718366 
L 312.64919 50.012275 
L 306.907774 50.577355 
L 300.559817 51.417953 
L 293.647782 52.476894 
L 286.231857 53.564589 
L 278.395966 54.284482 
L 270.140779 54.87698 
L 261.482346 55.499237 
L 252.457781 56.166299 
L 243.106539 56.877163 
L 233.469414 57.62882 
L 223.587197 58.417592 
L 213.50202 59.238129 
L 203.255343 60.083074 
L 192.889298 60.943735 
L 182.445679 61.809076 
L 171.96528 62.666059 
L 161.488893 63.500305 
L 151.056643 64.295764 
L 140.72069 65.035384 
L 130.633841 65.714483 
L 120.907105 66.37653 
L 111.395367 67.023195 
L 102.101971 67.63074 
L 93.05166 68.174755 
L 84.269176 68.629829 
L 75.777926 68.972889 
L 67.601985 69.1812 
L 59.766094 69.23403 
L 52.294664 69.113323 
L 45.213439 68.801693 
L 38.547499 68.285765 
L 32.323926 67.552498 
L 26.569136 66.591862 
L 21.311549 65.403187 
L 16.585606 64.014896 
L 12.406019 62.368472 
L 8.793852 60.451212 
L 5.772177 58.258768 
L 3.361391 55.78813 
L 1.579884 53.036624 
L 0.377835 50.030999 
" clip-path="url(#pdc9e09a012)" style="fill: none; stroke: #1f77b4; stroke-linecap: square"/>
   </g>
  </g>
 </g>
 <defs>
  <clipPath id="pdc9e09a012">
   <rect x="0" y="0" width="334.8" height="69.23403"/>
  </clipPath>
 </defs>
</svg>
